HIERARCHY
ROOT Hips
{
	OFFSET 55.310501 45.591206 43.872097
	CHANNELS 6 Xposition Yposition Zposition Zrotation Xrotation Yrotation
	JOINT Chest
	{
		OFFSET -0.153500 1.163101 7.852402
		CHANNELS 6 Xposition Yposition Zposition Zrotation Xrotation Yrotation
		JOINT Chest2
		{
			OFFSET 0.000000 0.000000 3.343300
			CHANNELS 6 Xposition Yposition Zposition Zrotation Xrotation Yrotation
			JOINT Neck
			{
				OFFSET 0.000000 0.000000 7.785500
				CHANNELS 6 Xposition Yposition Zposition Zrotation Xrotation Yrotation
				JOINT Head
				{
					OFFSET 0.000000 0.000000 2.173901
					CHANNELS 6 Xposition Yposition Zposition Zrotation Xrotation Yrotation
					End Site
					{
						OFFSET 0.000000 0.000000 10.528198
					}
				}
			}
			JOINT LeftCollar
			{
				OFFSET 2.676300 -1.652401 4.938301
				CHANNELS 6 Xposition Yposition Zposition Zrotation Xrotation Yrotation
				JOINT LeftShoulder
				{
					OFFSET 4.299000 0.000000 0.000000
					CHANNELS 6 Xposition Yposition Zposition Zrotation Xrotation Yrotation
					JOINT LeftElbow
					{
						OFFSET 0.000000 0.000000 -10.245102
						CHANNELS 6 Xposition Yposition Zposition Zrotation Xrotation Yrotation
						JOINT LeftWrist
						{
							OFFSET 0.000000 0.000000 -12.703300
							CHANNELS 6 Xposition Yposition Zposition Zrotation Xrotation Yrotation
							End Site
							{
								OFFSET 0.000000 0.000000 -2.173901
							}
						}
					}
				}
			}
			JOINT RightCollar
			{
				OFFSET -2.534599 -1.686401 5.195000
				CHANNELS 6 Xposition Yposition Zposition Zrotation Xrotation Yrotation
				JOINT RightShoulder
				{
					OFFSET -4.144100 0.000000 0.000000
					CHANNELS 6 Xposition Yposition Zposition Zrotation Xrotation Yrotation
					JOINT RightElbow
					{
						OFFSET 0.000000 0.000000 -10.116501
						CHANNELS 6 Xposition Yposition Zposition Zrotation Xrotation Yrotation
						JOINT RightWrist
						{
							OFFSET 0.000000 0.000000 -12.937801
							CHANNELS 6 Xposition Yposition Zposition Zrotation Xrotation Yrotation
							End Site
							{
								OFFSET 0.000000 0.000000 -2.173901
							}
						}
					}
				}
			}
		}
	}
	JOINT LeftHip
	{
		OFFSET 2.175598 0.064499 -2.662899
		CHANNELS 6 Xposition Yposition Zposition Zrotation Xrotation Yrotation
		JOINT LeftKnee
		{
			OFFSET 0.000000 -0.000004 -18.585800
			CHANNELS 6 Xposition Yposition Zposition Zrotation Xrotation Yrotation
			JOINT LeftAnkle
			{
				OFFSET 0.000000 0.000000 -18.979500
				CHANNELS 6 Xposition Yposition Zposition Zrotation Xrotation Yrotation
				End Site
				{
					OFFSET 0.000000 -9.264000 0.000000
				}
			}
		}
	}
	JOINT RightHip
	{
		OFFSET -2.092400 -0.058102 -2.581200
		CHANNELS 6 Xposition Yposition Zposition Zrotation Xrotation Yrotation
		JOINT RightKnee
		{
			OFFSET 0.000000 -0.000004 -18.665001
			CHANNELS 6 Xposition Yposition Zposition Zrotation Xrotation Yrotation
			JOINT RightAnkle
			{
				OFFSET 0.000000 0.000000 -18.566601
				CHANNELS 6 Xposition Yposition Zposition Zrotation Xrotation Yrotation
				End Site
				{
					OFFSET 0.000000 -8.497601 0.000000
				}
			}
		}
	}
}
MOTION
Frames: 9
Frame Time: 0.041667
39.338505 51.221306 45.531097 722.133826 1.170331 11.346289 -0.153498 1.163102 7.852406 -2.381659 4.514087 -5.412183 0.000006 0.000001 3.343304 10.478325 -4.042984 1.324722 -0.000002 -0.000002 7.785511 1.320302 1.356650 -5.523397 0.000001 0.000012 2.173909 1.092328 -2.304246 -0.173841 2.676301 -1.652401 4.938311 1.803470 1.977256 -7.169084 4.299003 0.000004 -0.000003 -3.796520 10.646734 -95.359877 -0.000003 0.000006 -10.245094 -19.224268 721.885644 0.289268 -0.000010 -0.000002 -12.703300 1277.058064 -185.560612 551.922670 -2.534600 -1.686407 5.195004 -1.227865 0.713268 -3.690139 -4.144098 -0.000001 0.000002 -1.568052 -0.223824 103.968518 0.000015 0.000007 -10.116504 -18.916361 -4.051608 -1.328973 -0.000010 0.000012 -12.937809 -331.114375 -367.861175 -5.284178 2.175598 0.064496 -2.662895 -372.536631 2.637554 -6.347822 0.000000 -0.000003 -18.585808 199.607743 -191.568570 -163.454295 -0.000002 -0.000003 -18.979519 395.720643 4.363245 -128.623841 -2.092401 -0.058101 -2.581196 189.162294 2.620684 -76.970064 0.000007 -0.000014 -18.665009 -1069.477140 11.733280 17.213614 0.000000 -0.000006 -18.566612 823.627158 57.288908 -25.224386
39.440002 51.222698 45.498096 721.663745 0.815363 11.160703 -0.153501 1.163103 7.852407 -1.869107 4.696262 -5.249414 0.000005 0.000004 3.343308 10.300818 -4.060924 1.317035 -0.000000 0.000000 7.785506 1.427373 1.254023 -5.350849 -0.000004 0.000005 2.173902 1.039293 -2.354595 -0.197934 2.676298 -1.652401 4.938304 2.075542 2.030556 -7.362880 4.299005 0.000007 -0.000010 -3.621159 11.259779 -94.895042 -0.000004 0.000008 -10.245105 -20.008973 722.050607 0.346013 -0.000012 -0.000003 -12.703307 1277.914078 -185.779192 551.603673 -2.534596 -1.686399 5.195003 -0.884149 0.801824 -3.767359 -4.144099 -0.000005 -0.000001 -1.503808 -0.197022 103.896678 0.000002 0.000000 -10.116491 -17.778054 -3.963236 -1.351964 0.000001 0.000004 -12.937805 -332.151963 -367.163950 -4.201658 2.175597 0.064506 -2.662894 -372.464340 2.586021 -6.142492 -0.000002 0.000000 -18.585798 198.581125 -192.134997 -163.369123 0.000003 -0.000004 -18.979511 396.192636 4.187681 -128.015094 -2.092398 -0.058094 -2.581193 189.689489 2.404095 -76.787138 0.000002 -0.000007 -18.665003 -1068.797290 12.356278 17.088035 0.000007 0.000004 -18.566608 821.693504 56.917134 -23.747721
39.536903 51.236000 45.468998 720.992255 0.201877 10.950069 -0.153508 1.163105 7.852403 -1.103726 5.155655 -5.079339 0.000003 0.000007 3.343300 10.085784 -4.087718 1.311840 -0.000001 0.000007 7.785505 1.589555 1.120624 -5.182335 0.000001 0.000010 2.173912 0.955413 -2.429751 -0.191716 2.676298 -1.652392 4.938298 2.071712 2.206380 -7.079490 4.299000 0.000006 -0.000006 -2.930968 12.008286 -94.731370 -0.000008 -0.000002 -10.245106 -20.734434 722.222564 0.327105 -0.000010 0.000013 -12.703309 1278.943742 -186.034996 551.182606 -2.534596 -1.686394 5.194996 -0.472982 0.838923 -3.843325 -4.144106 0.000005 0.000005 -1.386414 -0.154541 103.783850 0.000011 -0.000006 -10.116492 -16.599730 -3.797858 -1.337882 0.000006 0.000004 -12.937805 -333.455299 -366.529944 -2.968374 2.175585 0.064499 -2.662900 -372.408906 2.647199 -6.038558 -0.000001 0.000002 -18.585802 196.970921 -192.966204 -163.202562 -0.000006 -0.000001 -18.979517 396.837297 4.166788 -127.314029 -2.092403 -0.058100 -2.581197 190.544424 2.005110 -76.542809 0.000012 -0.000003 -18.665005 -1068.069247 12.916571 16.990509 0.000006 0.000008 -18.566610 819.893613 56.606781 -22.563450
39.625500 51.262405 45.443493 720.000020 0.000002 10.700607 -0.153496 1.163105 7.852400 -0.097546 5.191234 -4.914270 0.000000 0.000003 3.343304 9.869699 -4.113528 1.314104 0.000005 -0.000000 7.785513 1.757500 1.028072 -4.973930 -0.000004 0.000006 2.173903 0.865536 -2.576006 -0.217766 2.676302 -1.652401 4.938309 1.987818 2.482699 -6.518499 4.299002 0.000008 -0.000012 -2.206819 12.958460 -94.726357 -0.000014 0.000004 -10.245102 -21.426549 722.598115 0.419095 0.000002 0.000005 -12.703297 1280.275575 -186.313750 550.650725 -2.534595 -1.686402 5.195004 0.028197 0.832750 -3.975090 -4.144107 -0.000001 0.000010 -1.267506 -0.095975 103.663577 0.000004 0.000004 -10.116498 -15.348306 -3.589771 -1.299065 0.000011 -0.000005 -12.937803 -335.140007 -365.870640 -1.524294 2.175593 0.064499 -2.662901 -372.010461 2.018007 -6.177475 -0.000001 -0.000002 -18.585796 194.510414 -194.266754 -163.038118 -0.000006 -0.000006 -18.979515 397.311640 3.948934 -126.947371 -2.092400 -0.058091 -2.581204 191.690256 2.072216 -76.394908 0.000002 -0.000007 -18.665005 -1067.259350 13.518061 16.909530 0.000015 0.000013 -18.566603 818.389387 56.345936 -21.803688
39.708801 51.301403 45.421898 719.097943 -0.639630 10.308771 -0.153499 1.163103 7.852402 0.881858 5.712058 -4.573665 -0.000002 -0.000005 3.343306 9.683079 -4.143016 1.322987 -0.000006 0.000002 7.785507 1.924169 1.002906 -4.799007 -0.000000 0.000006 2.173911 0.755005 -2.591663 -0.243699 2.676293 -1.652397 4.938306 1.847652 2.771664 -5.875615 4.298996 0.000001 0.000007 -1.317979 13.991799 -94.793293 -0.000001 -0.000002 -10.245100 -22.022347 722.780672 0.513238 -0.000012 0.000007 -12.703303 1281.760075 -186.794267 549.924649 -2.534604 -1.686401 5.195002 0.501101 0.776677 -4.166034 -4.144103 0.000002 0.000002 -1.073841 -0.015781 103.463603 0.000004 -0.000007 -10.116493 -14.281833 -3.409711 -1.295858 0.000006 -0.000001 -12.937805 -337.054536 -365.067573 0.279446 2.175594 0.064504 -2.662897 -371.947896 1.724367 -6.307478 0.000000 -0.000008 -18.585804 191.551330 -195.807563 -162.748996 -0.000003 0.000004 -18.979511 397.473160 3.905167 -125.875865 -2.092402 -0.058100 -2.581196 192.837291 1.684512 -76.208526 0.000003 -0.000006 -18.665005 -1066.960461 13.910376 16.801640 0.000004 -0.000001 -18.566605 817.865539 56.210579 -21.975772
39.781605 51.353500 45.404392 718.123576 -1.178738 9.822969 -0.153499 1.163104 7.852408 1.893587 6.123207 -4.124568 0.000002 -0.000001 3.343298 9.526404 -4.181498 1.334759 0.000000 0.000001 7.785505 2.081049 1.097249 -4.637891 0.000001 -0.000001 2.173912 0.678209 -2.890801 -0.341444 2.676294 -1.652406 4.938302 1.659223 3.086913 -5.154661 4.298999 0.000011 -0.000004 -0.412450 15.000350 -94.812410 -0.000008 0.000007 -10.245095 -22.736484 723.073277 0.688035 -0.000005 0.000002 -12.703314 1283.556470 -187.230457 549.030823 -2.534595 -1.686403 5.195003 1.006625 0.721171 -4.480828 -4.144102 -0.000001 0.000001 -0.830941 -0.029203 103.254333 0.000010 -0.000004 -10.116499 -13.509686 -3.250538 -1.347421 0.000011 0.000006 -12.937804 -338.478904 -364.095501 2.326441 2.175592 0.064491 -2.662889 -371.641603 1.121104 -6.528099 0.000001 -0.000010 -18.585802 188.040012 -197.696547 -162.467524 0.000003 -0.000005 -18.979513 397.046819 3.750994 -125.007584 -2.092397 -0.058100 -2.581188 194.028134 1.379180 -76.085186 -0.000000 -0.000014 -18.665007 -1067.025157 14.230534 16.700608 0.000007 -0.000000 -18.566607 818.308299 56.202434 -22.884465
39.841404 51.418098 45.392292 717.129756 -1.626494 9.361140 -0.153495 1.163100 7.852398 2.905498 6.408359 -3.729543 0.000008 0.000005 3.343297 9.408897 -4.208114 1.351637 0.000001 -0.000004 7.785501 2.237252 1.312872 -4.452472 0.000001 0.000004 2.173904 0.606337 -2.906471 -0.399826 2.676292 -1.652401 4.938298 1.429297 3.443695 -4.409426 4.299004 0.000007 -0.000011 0.474939 15.903841 -94.463306 0.000005 -0.000000 -10.245102 -23.341338 723.346376 0.583304 -0.000003 0.000005 -12.703300 1285.435263 -187.752188 547.925534 -2.534597 -1.686396 5.195004 1.503116 0.678055 -4.874890 -4.144103 -0.000005 -0.000004 -0.514204 0.101557 103.020857 -0.000005 0.000002 -10.116496 -13.017097 -3.043781 -1.393382 0.000002 0.000009 -12.937804 -340.397995 -363.124084 4.757359 2.175597 0.064493 -2.662900 -371.285176 0.407123 -7.006058 -0.000005 -0.000007 -18.585796 184.299199 -199.631212 -162.035733 -0.000006 -0.000001 -18.979515 395.935029 3.603046 -123.677049 -2.092399 -0.058102 -2.581198 196.450816 -2.443045 -75.762917 0.000006 -0.000005 -18.665005 -1071.008960 14.161427 16.531071 0.000008 0.000002 -18.566612 818.958041 56.345249 -24.009850
39.894299 51.487797 45.375996 716.257732 -2.030636 8.872444 -0.153499 1.163108 7.852410 3.778035 6.664830 -3.290908 0.000006 0.000009 3.343301 9.350030 -4.247604 1.370308 -0.000000 -0.000001 7.785507 2.363456 1.580764 -4.258947 -0.000004 0.000005 2.173904 0.574418 -3.126294 -0.528269 2.676299 -1.652402 4.938300 1.313164 3.683378 -3.826567 4.299009 0.000010 -0.000004 1.082973 16.702925 -93.965877 0.000008 0.000006 -10.245102 -23.933159 723.550844 0.693640 -0.000010 0.000001 -12.703294 1287.360502 -188.162477 546.664517 -2.534592 -1.686402 5.195002 1.916608 0.658726 -5.304247 -4.144104 -0.000009 -0.000007 -0.219077 0.212021 102.701333 0.000002 0.000009 -10.116496 -12.662052 -2.974304 -1.479621 0.000004 -0.000003 -12.937793 -342.310093 -362.095403 7.372133 2.175595 0.064497 -2.662895 -371.039645 -0.240249 -7.470513 -0.000001 -0.000006 -18.585806 180.565326 -201.386106 -161.574231 -0.000006 -0.000005 -18.979509 394.337912 3.303160 -121.872677 -2.092406 -0.058093 -2.581194 197.696260 -3.269675 -75.455729 -0.000001 -0.000003 -18.665005 -1072.379916 14.239605 16.349634 0.000009 0.000002 -18.566603 820.265230 56.635246 -25.559053
39.943401 51.560398 45.351891 715.569741 -2.368793 8.362660 -0.153498 1.163102 7.852396 4.443155 6.910175 -2.769541 0.000008 0.000005 3.343307 9.324888 -4.330041 1.381160 0.000002 0.000004 7.785508 2.455992 1.811145 -4.097861 0.000002 0.000001 2.173912 0.544177 -2.997432 -0.582637 2.676299 -1.652394 4.938312 1.354363 3.753362 -3.481829 4.299002 0.000006 -0.000003 1.445051 17.166695 -93.143768 -0.000000 -0.000006 -10.245098 -24.454772 723.612753 0.756472 -0.000012 0.000004 -12.703306 1288.882596 -188.506241 545.336838 -2.534592 -1.686406 5.195004 2.246059 0.665372 -5.792146 -4.144099 0.000006 0.000002 -0.593321 3.339257 102.238575 0.000003 -0.000001 -10.116501 -15.399592 -3.044345 -1.486328 0.000011 -0.000004 -12.937805 -344.406797 -361.050111 10.329985 2.175598 0.064495 -2.662908 -370.950279 -0.711203 -7.964041 0.000008 0.000005 -18.585796 177.426198 -202.742595 -161.082976 -0.000008 -0.000001 -18.979513 392.240771 2.949994 -119.780085 -2.092401 -0.058102 -2.581202 198.843063 -4.258088 -75.080219 0.000007 -0.000005 -18.665001 -1073.897639 14.247210 16.129990 0.000009 -0.000004 -18.566601 821.583347 56.936098 -27.307761
